<svg version="1.1" id="Layer_1" xmlns="http://www.w3.org/2000/svg" xmlns:xlink="http://www.w3.org/1999/xlink" x="0px" y="0px"
	 width="100%" viewBox="0 0 192 192" enable-background="new 0 0 192 192" xml:space="preserve">
<path fill="#343333" opacity="1.000000" stroke="none" 
	d="
M193.000000,77.000000 
	C193.000000,90.020897 193.000000,103.041786 192.655731,116.641457 
	C191.533279,119.176117 190.509735,121.072136 190.015564,123.097321 
	C185.927917,139.849121 177.069534,154.038300 165.086960,165.947189 
	C152.832092,178.126678 138.113251,186.723053 120.960098,190.596313 
	C119.531967,190.918793 118.315048,192.176697 117.000000,193.000000 
	C103.979103,193.000000 90.958214,193.000000 77.359947,192.655304 
	C74.826027,191.532471 72.930031,190.501572 70.903374,190.016098 
	C54.288017,186.036041 40.163723,177.278458 28.401470,165.440384 
	C16.525183,153.487549 7.589412,139.292053 3.825593,122.391243 
	C3.399790,120.479240 1.966248,118.791649 1.000000,117.000000 
	C1.000000,103.979103 1.000000,90.958214 1.344732,77.359985 
	C2.467134,74.826485 3.494094,72.930489 3.983187,70.904648 
	C8.033188,54.129234 16.908085,39.910950 28.909864,28.046982 
	C41.040417,16.055723 55.520878,7.314724 72.569794,3.572186 
	C74.158195,3.223502 75.528458,1.881039 77.000000,1.000000 
	C90.020897,1.000000 103.041786,1.000000 116.641479,1.344249 
	C119.173370,2.466385 121.122314,3.254868 123.080292,4.020267 
	C130.312454,6.847413 138.162628,8.667039 144.670441,12.670063 
	C167.464722,26.691069 184.007584,45.840240 190.422928,72.577156 
	C190.804169,74.166069 192.119385,75.530899 193.000000,77.000000 
M161.678772,41.830513 
	C137.814468,15.707028 108.433563,5.997770 74.363998,15.371720 
	C40.668633,24.642712 19.709747,47.678879 13.625649,82.069550 
	C7.393380,117.297760 19.604124,146.589584 49.061275,166.896835 
	C77.454430,186.470596 108.324242,187.715866 138.442978,171.031082 
	C186.875717,144.200974 195.248978,81.764366 161.678772,41.830513 
z"/>
<path fill="#000000" opacity="1.000000" stroke="none" 
	d="
M193.000000,76.531342 
	C192.119385,75.530899 190.804169,74.166069 190.422928,72.577156 
	C184.007584,45.840240 167.464722,26.691069 144.670441,12.670063 
	C138.162628,8.667039 130.312454,6.847413 123.080292,4.020267 
	C121.122314,3.254868 119.173370,2.466385 117.110138,1.344249 
	C142.260208,1.000000 167.520416,1.000000 193.000000,1.000000 
	C193.000000,26.020468 193.000000,51.041576 193.000000,76.531342 
z"/>
<path fill="#000000" opacity="1.000000" stroke="none" 
	d="
M76.531342,1.000000 
	C75.528458,1.881039 74.158195,3.223502 72.569794,3.572186 
	C55.520878,7.314724 41.040417,16.055723 28.909864,28.046982 
	C16.908085,39.910950 8.033188,54.129234 3.983187,70.904648 
	C3.494094,72.930489 2.467134,74.826485 1.344732,76.891327 
	C1.000000,51.739792 1.000000,26.479588 1.000000,1.000000 
	C26.020468,1.000000 51.041576,1.000000 76.531342,1.000000 
z"/>
<path fill="#000000" opacity="1.000000" stroke="none" 
	d="
M1.000000,117.468658 
	C1.966248,118.791649 3.399790,120.479240 3.825593,122.391243 
	C7.589412,139.292053 16.525183,153.487549 28.401470,165.440384 
	C40.163723,177.278458 54.288017,186.036041 70.903374,190.016098 
	C72.930031,190.501572 74.826027,191.532471 76.891289,192.655304 
	C51.739788,193.000000 26.479576,193.000000 1.000000,193.000000 
	C1.000000,167.979538 1.000000,142.958420 1.000000,117.468658 
z"/>
<path fill="#000000" opacity="1.000000" stroke="none" 
	d="
M117.468658,193.000000 
	C118.315048,192.176697 119.531967,190.918793 120.960098,190.596313 
	C138.113251,186.723053 152.832092,178.126678 165.086960,165.947189 
	C177.069534,154.038300 185.927917,139.849121 190.015564,123.097321 
	C190.509735,121.072136 191.533279,119.176117 192.655731,117.110115 
	C193.000000,142.260208 193.000000,167.520416 193.000000,193.000000 
	C167.979538,193.000000 142.958420,193.000000 117.468658,193.000000 
z"/>
<path fill="#983333" opacity="1.000000" stroke="none" 
	d="
M161.910797,42.100246 
	C195.248978,81.764366 186.875717,144.200974 138.442978,171.031082 
	C108.324242,187.715866 77.454430,186.470596 49.061275,166.896835 
	C19.604124,146.589584 7.393380,117.297760 13.625649,82.069550 
	C19.709747,47.678879 40.668633,24.642712 74.363998,15.371720 
	C108.433563,5.997770 137.814468,15.707028 161.910797,42.100246 
M116.118828,44.180096 
	C90.461441,35.877258 64.622581,44.336025 50.381031,65.700424 
	C35.995121,87.281380 37.692337,114.603546 55.560440,134.490829 
	C69.810020,150.350708 88.098953,156.379822 108.964844,151.706543 
	C130.376740,146.911026 144.718918,133.343613 150.874023,112.352509 
	C159.166214,84.073105 144.933975,56.455631 116.118828,44.180096 
z"/>
<path fill="#3C3371" opacity="1.000000" stroke="none" 
	d="
M116.480247,44.325726 
	C144.933975,56.455631 159.166214,84.073105 150.874023,112.352509 
	C144.718918,133.343613 130.376740,146.911026 108.964844,151.706543 
	C88.098953,156.379822 69.810020,150.350708 55.560440,134.490829 
	C37.692337,114.603546 35.995121,87.281380 50.381031,65.700424 
	C64.622581,44.336025 90.461441,35.877258 116.480247,44.325726 
M84.068832,110.445366 
	C91.199562,116.321930 98.940369,117.277855 106.286713,113.189087 
	C112.714417,109.611595 116.542336,101.878952 115.484871,94.608246 
	C114.277740,86.308540 108.585983,80.313103 100.375603,78.692848 
	C92.930595,77.223633 84.925560,80.780975 81.056770,87.277901 
	C76.675499,94.635437 77.560425,102.659073 84.068832,110.445366 
z"/>
<path fill="#48518C" opacity="1.000000" stroke="none" 
	d="
M83.811996,110.188019 
	C77.560425,102.659073 76.675499,94.635437 81.056770,87.277901 
	C84.925560,80.780975 92.930595,77.223633 100.375603,78.692848 
	C108.585983,80.313103 114.277740,86.308540 115.484871,94.608246 
	C116.542336,101.878952 112.714417,109.611595 106.286713,113.189087 
	C98.940369,117.277855 91.199562,116.321930 83.811996,110.188019 
z"/>
</svg>