<?xml version="1.0" encoding="UTF-8"?>
<!DOCTYPE svg PUBLIC "-//W3C//DTD SVG 1.1//EN" "http://www.w3.org/Graphics/SVG/1.1/DTD/svg11.dtd">
<svg xmlns="http://www.w3.org/2000/svg" version="1.1" width="192px" height="192px" style="shape-rendering:geometricPrecision; text-rendering:geometricPrecision; image-rendering:optimizeQuality; fill-rule:evenodd; clip-rule:evenodd" xmlns:xlink="http://www.w3.org/1999/xlink">
<g><path style="opacity:0.94" fill="#333333" d="M 82.5,-0.5 C 91.1667,-0.5 99.8333,-0.5 108.5,-0.5C 125.411,1.95358 140.744,8.28692 154.5,18.5C 157.31,21.1356 160.31,23.6356 163.5,26C 166.365,29.6919 169.365,33.1919 172.5,36.5C 182.713,50.2559 189.046,65.5892 191.5,82.5C 191.5,91.1667 191.5,99.8333 191.5,108.5C 189.046,125.411 182.713,140.744 172.5,154.5C 169.864,157.31 167.364,160.31 165,163.5C 161.308,166.365 157.808,169.365 154.5,172.5C 140.744,182.713 125.411,189.046 108.5,191.5C 99.8333,191.5 91.1667,191.5 82.5,191.5C 65.5892,189.046 50.2559,182.713 36.5,172.5C 33.6902,169.864 30.6902,167.364 27.5,165C 24.6352,161.308 21.6352,157.808 18.5,154.5C 8.28692,140.744 1.95358,125.411 -0.5,108.5C -0.5,99.8333 -0.5,91.1667 -0.5,82.5C 1.95358,65.5892 8.28692,50.2559 18.5,36.5C 21.1356,33.6902 23.6356,30.6902 26,27.5C 29.6919,24.6352 33.1919,21.6352 36.5,18.5C 50.2559,8.28692 65.5892,1.95358 82.5,-0.5 Z"/></g>
<g><path style="opacity:1" fill="#723333" d="M 81.5,11.5 C 90.3238,10.3427 99.3238,10.176 108.5,11C 109.737,11.2321 110.737,11.7321 111.5,12.5C 101.532,11.6039 91.5321,11.2705 81.5,11.5 Z"/></g>
<g><path style="opacity:1" fill="#983333" d="M 81.5,11.5 C 91.5321,11.2705 101.532,11.6039 111.5,12.5C 148.942,20.9416 171.608,43.9416 179.5,81.5C 179.729,91.5321 179.396,101.532 178.5,111.5C 171.368,145.295 151.368,167.295 118.5,177.5C 106.573,179.204 94.5734,179.871 82.5,179.5C 44.3909,172.058 21.0576,149.391 12.5,111.5C 11.608,101.866 11.2747,92.1991 11.5,82.5C 19.3864,43.6135 42.7198,19.9468 81.5,11.5 Z"/></g>
<g><path style="opacity:0.004" fill="#000000" d="M 36.5,18.5 C 35.8333,17.1667 35.8333,17.1667 36.5,18.5 Z"/></g>
<g><path style="opacity:0.004" fill="#000000" d="M 154.5,17.5 C 155.833,18.1667 155.833,18.1667 154.5,17.5 Z"/></g>
<g><path style="opacity:0.004" fill="#000000" d="M 18.5,36.5 C 17.8333,35.1667 17.8333,35.1667 18.5,36.5 Z"/></g>
<g><path style="opacity:0.004" fill="#000000" d="M 172.5,35.5 C 173.833,36.1667 173.833,36.1667 172.5,35.5 Z"/></g>
<g><path style="opacity:1" fill="#78334e" d="M 107.5,40.5 C 98.4389,39.0811 89.4389,39.4144 80.5,41.5C 80.9175,40.7784 81.5842,40.2784 82.5,40C 91.0318,37.8532 99.3652,38.0199 107.5,40.5 Z"/></g>
<g><path style="opacity:1" fill="#3c3370" d="M 107.5,40.5 C 109.302,41.4582 111.302,42.1249 113.5,42.5C 132.756,49.4232 145.09,62.7565 150.5,82.5C 151.713,90.8395 151.713,99.1728 150.5,107.5C 149.542,109.302 148.875,111.302 148.5,113.5C 142.988,129.679 132.321,141.012 116.5,147.5C 113.341,148.331 110.341,149.331 107.5,150.5C 99.1728,151.713 90.8395,151.713 82.5,150.5C 62.7565,145.09 49.4232,132.756 42.5,113.5C 42.1249,111.302 41.4582,109.302 40.5,107.5C 39.2868,99.1728 39.2868,90.8395 40.5,82.5C 46.4291,61.5713 59.7625,47.9046 80.5,41.5C 89.4389,39.4144 98.4389,39.0811 107.5,40.5 Z"/></g>
<g><path style="opacity:1" fill="#7c334c" d="M 107.5,40.5 C 110.01,40.0535 112.01,40.7202 113.5,42.5C 111.302,42.1249 109.302,41.4582 107.5,40.5 Z"/></g>
<g><path style="opacity:1" fill="#47518b" d="M 90.5,76.5 C 111.063,77.3178 117.896,87.3178 111,106.5C 100.635,117.098 90.3013,117.098 80,106.5C 73.5706,93.0253 77.0706,83.0253 90.5,76.5 Z"/></g>
<g><path style="opacity:1" fill="#733333" d="M 11.5,82.5 C 11.2747,92.1991 11.608,101.866 12.5,111.5C 11.7321,110.737 11.2321,109.737 11,108.5C 10.1764,99.6567 10.3431,90.9901 11.5,82.5 Z"/></g>
<g><path style="opacity:1" fill="#7a334d" d="M 40.5,82.5 C 39.2868,90.8395 39.2868,99.1728 40.5,107.5C 37.8801,99.1731 37.8801,90.8397 40.5,82.5 Z"/></g>
<g><path style="opacity:1" fill="#7a334d" d="M 150.5,82.5 C 153.12,90.8397 153.12,99.1731 150.5,107.5C 151.713,99.1728 151.713,90.8395 150.5,82.5 Z"/></g>
<g><path style="opacity:1" fill="#723333" d="M 179.5,81.5 C 180.657,90.3238 180.824,99.3238 180,108.5C 179.768,109.737 179.268,110.737 178.5,111.5C 179.396,101.532 179.729,91.5321 179.5,81.5 Z"/></g>
<g><path style="opacity:1" fill="#7c334c" d="M 40.5,107.5 C 41.4582,109.302 42.1249,111.302 42.5,113.5C 40.7202,112.01 40.0535,110.01 40.5,107.5 Z"/></g>
<g><path style="opacity:1" fill="#7c334c" d="M 150.5,107.5 C 150.946,110.01 150.28,112.01 148.5,113.5C 148.875,111.302 149.542,109.302 150.5,107.5 Z"/></g>
<g><path style="opacity:1" fill="#7f3349" d="M 116.5,147.5 C 114.081,149.862 111.081,150.862 107.5,150.5C 110.341,149.331 113.341,148.331 116.5,147.5 Z"/></g>
<g><path style="opacity:1" fill="#7a334d" d="M 82.5,150.5 C 90.8395,151.713 99.1728,151.713 107.5,150.5C 99.1731,153.12 90.8397,153.12 82.5,150.5 Z"/></g>
<g><path style="opacity:0.004" fill="#000000" d="M 18.5,154.5 C 17.8333,155.167 17.8333,155.167 18.5,154.5 Z"/></g>
<g><path style="opacity:0.004" fill="#000000" d="M 172.5,154.5 C 173.833,155.167 173.833,155.167 172.5,154.5 Z"/></g>
<g><path style="opacity:0.004" fill="#000000" d="M 36.5,172.5 C 35.8333,173.167 35.8333,173.167 36.5,172.5 Z"/></g>
<g><path style="opacity:0.004" fill="#000000" d="M 154.5,172.5 C 155.833,173.167 155.833,173.167 154.5,172.5 Z"/></g>
<g><path style="opacity:1" fill="#633333" d="M 118.5,177.5 C 115.466,179.018 112.133,179.851 108.5,180C 99.6567,180.824 90.9901,180.657 82.5,179.5C 94.5734,179.871 106.573,179.204 118.5,177.5 Z"/></g>
</svg>
